<svg width="16" height="12" viewBox="0 0 16 12" fill="none" xmlns="http://www.w3.org/2000/svg">
<path fill-rule="evenodd" clip-rule="evenodd" d="M1.33333 1.83341C1.79357 1.83341 2.16667 1.46031 2.16667 1.00008C2.16667 0.539848 1.79357 0.166748 1.33333 0.166748C0.8731 0.166748 0.5 0.539848 0.5 1.00008C0.5 1.46031 0.8731 1.83341 1.33333 1.83341ZM5.29167 0.583415C4.94649 0.583415 4.66667 0.86324 4.66667 1.20841C4.66667 1.55359 4.94649 1.83341 5.29167 1.83341H14.875C15.2202 1.83341 15.5 1.55359 15.5 1.20841C15.5 0.86324 15.2202 0.583415 14.875 0.583415H5.29167ZM5.29167 5.58341C4.94649 5.58341 4.66667 5.86325 4.66667 6.20841C4.66667 6.55358 4.94649 6.83341 5.29167 6.83341H14.875C15.2202 6.83341 15.5 6.55358 15.5 6.20841C15.5 5.86325 15.2202 5.58341 14.875 5.58341H5.29167ZM5.29167 10.5834C4.94649 10.5834 4.66667 10.8632 4.66667 11.2084C4.66667 11.5536 4.94649 11.8334 5.29167 11.8334H14.875C15.2202 11.8334 15.5 11.5536 15.5 11.2084C15.5 10.8632 15.2202 10.5834 14.875 10.5834H5.29167ZM2.16667 6.00008C2.16667 6.46033 1.79357 6.83341 1.33333 6.83341C0.8731 6.83341 0.5 6.46033 0.5 6.00008C0.5 5.53983 0.8731 5.16675 1.33333 5.16675C1.79357 5.16675 2.16667 5.53983 2.16667 6.00008ZM1.33333 11.8334C1.79357 11.8334 2.16667 11.4603 2.16667 11.0001C2.16667 10.5398 1.79357 10.1667 1.33333 10.1667C0.8731 10.1667 0.5 10.5398 0.5 11.0001C0.5 11.4603 0.8731 11.8334 1.33333 11.8334Z" fill="#B7B7B7"/>
</svg>
