<svg width="16" height="12" viewBox="0 0 16 12" fill="none" xmlns="http://www.w3.org/2000/svg">
<path fill-rule="evenodd" clip-rule="evenodd" d="M1.33333 1.83335C1.79357 1.83335 2.16667 1.46025 2.16667 1.00002C2.16667 0.539787 1.79357 0.166687 1.33333 0.166687C0.8731 0.166687 0.5 0.539787 0.5 1.00002C0.5 1.46025 0.8731 1.83335 1.33333 1.83335ZM5.29167 0.583354C4.94649 0.583354 4.66667 0.863179 4.66667 1.20835C4.66667 1.55353 4.94649 1.83335 5.29167 1.83335H14.875C15.2202 1.83335 15.5 1.55353 15.5 1.20835C15.5 0.863179 15.2202 0.583354 14.875 0.583354H5.29167ZM5.29167 5.58335C4.94649 5.58335 4.66667 5.86319 4.66667 6.20835C4.66667 6.55352 4.94649 6.83335 5.29167 6.83335H14.875C15.2202 6.83335 15.5 6.55352 15.5 6.20835C15.5 5.86319 15.2202 5.58335 14.875 5.58335H5.29167ZM5.29167 10.5834C4.94649 10.5834 4.66667 10.8632 4.66667 11.2084C4.66667 11.5535 4.94649 11.8334 5.29167 11.8334H14.875C15.2202 11.8334 15.5 11.5535 15.5 11.2084C15.5 10.8632 15.2202 10.5834 14.875 10.5834H5.29167ZM2.16667 6.00002C2.16667 6.46027 1.79357 6.83335 1.33333 6.83335C0.8731 6.83335 0.5 6.46027 0.5 6.00002C0.5 5.53977 0.8731 5.16669 1.33333 5.16669C1.79357 5.16669 2.16667 5.53977 2.16667 6.00002ZM1.33333 11.8334C1.79357 11.8334 2.16667 11.4603 2.16667 11C2.16667 10.5398 1.79357 10.1667 1.33333 10.1667C0.8731 10.1667 0.5 10.5398 0.5 11C0.5 11.4603 0.8731 11.8334 1.33333 11.8334Z" fill="#003B44"/>
</svg>
